<mxfile host="app.diagrams.net" modified="2024-04-17T06:30:54.399Z" agent="Mozilla/5.0 (Windows NT 10.0; Win64; x64) AppleWebKit/537.36 (KHTML, like Gecko) Chrome/123.0.0.0 Safari/537.36" version="24.2.5" etag="p8hbxi_2wI7bdmMSKQVe" type="github">
  <diagram name="第 1 页" id="uSKweRpjnUvbqP5eq3yd">
    <mxGraphModel>
      <root>
        <mxCell id="0" />
        <mxCell id="1" parent="0" />
      </root>
    </mxGraphModel>
  </diagram>
</mxfile>
